<?xml version="1.0" encoding="UTF-8" standalone="no"?>
<svg width="500px" height="500px" viewBox="0 0 500 500" version="1.1" xmlns="http://www.w3.org/2000/svg" xmlns:xlink="http://www.w3.org/1999/xlink" xmlns:sketch="http://www.bohemiancoding.com/sketch/ns">
    <!-- Generator: Sketch 3.2.2 (9983) - http://www.bohemiancoding.com/sketch -->
    <title>Rectangle 6</title>
    <desc>Created with Sketch.</desc>
    <defs></defs>
    <g id="Page-1" stroke="none" stroke-width="1" fill="none" fill-rule="evenodd" sketch:type="MSPage">
        <g id="Artboard-1" sketch:type="MSArtboardGroup" transform="translate(-100.000000, -690.000000)">
            <g id="Rectangle-1-+-Rectangle-3-+-Rectangle-5" sketch:type="MSLayerGroup" transform="translate(100.000000, 97.000000)">
                <g id="Rectangle-6" transform="translate(0.000000, 593.000000)" sketch:type="MSShapeGroup">
                    <g id="Rectangle-3-+-Triangle-7-+-Rectangle">
                        <path d="M0,0 L500,0 L500,500 L0,500 L0,0 Z M250,65 L400,220 L100,220 L250,65 Z M250,35 L400,190 L100,190 L250,35 Z M250,470 L100,315 L400,315 L250,470 Z M250,440 L100,285 L400,285 L250,440 Z" id="Rectangle-3" fill="#D8D8D8"></path>
                        <polygon id="Triangle-7" fill="#FFFFFF" transform="translate(250.000000, 325.500000) rotate(-180.000000) translate(-250.000000, -325.500000) " points="250 248 400 403 100 403 "></polygon>
                        <polygon id="Triangle-10" fill="#FFFFFF" points="250 97 400 252 100 252 "></polygon>
                        <rect id="Rectangle" fill="#D8D8D8" x="58" y="190" width="384" height="127"></rect>
                    </g>
                </g>
            </g>
        </g>
    </g>
</svg>